<svg xmlns="http://www.w3.org/2000/svg" viewBox="0 0 10 10"><rect x="0" y="0" width="10" height="10" fill="white"></rect><rect x="1" y="1" width="8" height="8" fill="black"></rect><rect x="2" y="2" width="1" height="1" fill="white"></rect><rect x="3" y="2" width="1" height="1" fill="white"></rect><rect x="5" y="2" width="1" height="1" fill="white"></rect><rect x="2" y="3" width="1" height="1" fill="white"></rect><rect x="4" y="3" width="1" height="1" fill="white"></rect><rect x="6" y="3" width="1" height="1" fill="white"></rect><rect x="7" y="3" width="1" height="1" fill="white"></rect><rect x="3" y="4" width="1" height="1" fill="white"></rect><rect x="4" y="4" width="1" height="1" fill="white"></rect><rect x="2" y="5" width="1" height="1" fill="white"></rect><rect x="3" y="5" width="1" height="1" fill="white"></rect><rect x="4" y="5" width="1" height="1" fill="white"></rect><rect x="6" y="5" width="1" height="1" fill="white"></rect><rect x="6" y="6" width="1" height="1" fill="white"></rect><rect x="3" y="7" width="1" height="1" fill="white"></rect><rect x="4" y="7" width="1" height="1" fill="white"></rect><rect x="5" y="7" width="1" height="1" fill="white"></rect><rect x="7" y="7" width="1" height="1" fill="white"></rect></svg>